<?xml version="1.0" standalone="no"?>
<!DOCTYPE svg PUBLIC "-//W3C//DTD SVG 20010904//EN"
 "http://www.w3.org/TR/2001/REC-SVG-20010904/DTD/svg10.dtd">
<svg version="1.0" xmlns="http://www.w3.org/2000/svg"
 width="512.000000pt" height="512.000000pt" viewBox="0 0 512.000000 512.000000"
 preserveAspectRatio="xMidYMid meet">
<metadata>
Created by potrace 1.16, written by Peter Selinger 2001-2019
</metadata>
<g transform="translate(0.000000,512.000000) scale(0.100000,-0.100000)"
fill="#000000" stroke="none">
<path d="M2499 5101 c-23 -18 -24 -25 -27 -174 l-3 -154 -49 -23 c-64 -30
-133 -102 -165 -173 -50 -108 -31 -261 45 -366 32 -44 76 -71 130 -80 l35 -6
3 -78 3 -77 -385 0 c-247 0 -404 -4 -438 -11 -124 -27 -242 -121 -296 -236
l-27 -58 -3 -426 -3 -427 -92 -4 c-121 -6 -190 -33 -266 -103 -65 -61 -113
-144 -130 -223 -7 -33 -11 -195 -11 -437 l0 -385 -42 0 c-43 0 -132 -13 -176
-26 -20 -6 -26 2 -58 72 -78 170 -141 373 -181 584 -25 136 -25 573 0 710 10
52 20 102 22 110 4 13 -13 20 -81 34 -47 10 -87 16 -89 14 -1 -2 -10 -46 -18
-98 -83 -494 -17 -995 187 -1425 l52 -110 -38 -55 c-67 -94 -68 -105 -68 -562
l0 -408 -61 0 c-84 0 -132 -16 -186 -64 -61 -53 -83 -103 -83 -189 0 -112 54
-194 152 -231 39 -15 249 -16 2424 -14 l2381 3 49 30 c71 44 107 108 112 197
6 92 -15 144 -78 201 -56 50 -103 67 -189 67 l-61 0 0 410 c0 459 -1 469 -73
568 l-33 47 52 110 c203 424 270 935 188 1425 -9 52 -18 96 -19 98 -1 2 -41
-5 -89 -15 -67 -14 -85 -21 -81 -33 2 -8 12 -58 22 -110 25 -137 25 -574 0
-710 -39 -209 -101 -409 -183 -588 -30 -67 -36 -74 -56 -68 -44 13 -133 26
-175 26 l-43 0 0 385 c0 242 -4 404 -11 437 -17 79 -65 162 -130 223 -76 70
-145 97 -266 103 l-92 4 -3 427 -3 426 -27 58 c-54 115 -172 209 -296 236 -34
7 -191 11 -437 11 l-385 0 0 80 0 80 38 19 c116 60 203 231 203 401 1 158 -28
231 -160 410 -51 69 -102 133 -113 143 -27 23 -89 22 -119 -2z m189 -398 c23
-49 27 -72 27 -143 0 -71 -4 -94 -26 -140 -14 -30 -38 -70 -53 -87 -27 -32
-30 -33 -107 -33 l-80 0 -24 53 c-29 61 -31 94 -10 144 22 52 41 71 106 104
61 31 105 75 115 117 14 57 19 56 52 -15z m786 -927 c47 -20 104 -73 128 -120
12 -24 23 -68 26 -107 4 -59 2 -70 -23 -107 -42 -63 -52 -62 -120 12 -33 35
-76 72 -95 82 -43 21 -123 22 -171 1 -33 -14 -50 -28 -131 -118 -33 -36 -46
-32 -97 36 -49 65 -111 98 -185 98 -70 0 -110 -22 -183 -101 l-63 -67 -62 67
c-74 79 -114 101 -184 101 -74 0 -136 -33 -185 -98 -53 -70 -64 -74 -103 -28
-84 99 -128 126 -211 126 -68 0 -109 -23 -180 -99 -68 -74 -78 -75 -120 -12
-25 37 -27 48 -23 107 6 78 32 135 84 181 72 62 18 59 982 60 727 0 888 -2
916 -14z m-1595 -456 c66 -75 112 -100 186 -100 74 0 108 18 181 97 70 76 73
76 132 -2 98 -129 266 -129 364 0 59 78 62 78 132 2 73 -79 107 -97 181 -97
74 0 120 25 186 100 28 33 58 60 65 60 7 0 31 -24 53 -52 64 -84 100 -103 193
-103 l78 0 0 -207 0 -208 -1070 0 -1070 0 0 208 0 207 78 0 c93 0 129 19 193
103 22 28 46 52 53 52 7 0 37 -27 65 -60z m2107 -707 c48 -25 101 -83 120
-129 8 -19 14 -64 14 -101 0 -57 -4 -75 -25 -106 -30 -43 -57 -48 -83 -15
-131 171 -265 184 -393 39 -29 -33 -61 -61 -71 -61 -10 0 -35 24 -57 54 -90
122 -237 140 -336 41 -22 -22 -49 -53 -60 -69 -27 -39 -60 -30 -99 25 -102
145 -268 144 -381 -3 -21 -28 -44 -48 -55 -48 -11 0 -34 20 -55 48 -113 147
-279 148 -381 3 -39 -55 -72 -64 -99 -25 -11 16 -38 47 -60 69 -99 99 -246 81
-336 -41 -22 -30 -47 -54 -57 -54 -10 0 -42 28 -71 61 -128 145 -262 132 -393
-39 -26 -33 -53 -28 -83 15 -21 31 -25 49 -25 106 0 78 14 118 60 171 35 39
76 65 125 77 17 4 644 6 1395 6 l1365 -2 41 -22z m-2610 -440 c21 -27 45 -54
54 -61 32 -28 97 -52 140 -52 66 0 119 29 180 99 29 33 61 61 71 61 9 0 33
-22 53 -50 103 -143 270 -146 376 -6 23 31 50 56 60 56 9 0 41 -28 70 -61 61
-70 114 -99 180 -99 66 0 119 29 180 99 29 33 61 61 70 61 10 0 37 -25 60 -56
107 -142 278 -137 380 11 17 25 39 45 49 45 10 0 42 -28 71 -61 61 -70 114
-99 180 -99 66 0 120 30 181 99 29 33 61 61 71 61 10 0 35 -24 57 -54 55 -74
129 -111 206 -103 l55 6 0 -205 0 -204 -1560 0 -1560 0 0 204 0 205 55 -6 c77
-8 151 29 206 103 23 31 47 54 58 54 10 0 36 -21 57 -47z m3094 -714 c94 -42
141 -113 148 -224 4 -66 2 -73 -27 -112 -36 -50 -53 -53 -84 -16 -70 83 -85
98 -122 114 -54 25 -135 24 -184 -1 -22 -11 -63 -47 -92 -80 -28 -33 -58 -60
-65 -60 -7 0 -31 24 -53 52 -58 76 -100 101 -177 106 -77 5 -141 -21 -182 -76
-40 -52 -70 -82 -82 -82 -6 0 -20 10 -30 23 -71 85 -89 102 -125 118 -54 25
-135 24 -184 -1 -22 -11 -63 -47 -92 -80 -28 -33 -57 -60 -64 -60 -7 0 -36 27
-64 60 -64 74 -112 100 -182 100 -72 0 -131 -31 -181 -94 -65 -82 -71 -82
-136 0 -50 63 -109 94 -181 94 -70 0 -118 -26 -182 -100 -28 -33 -57 -60 -64
-60 -7 0 -36 27 -64 60 -70 81 -116 103 -197 98 -73 -5 -128 -36 -175 -101
-52 -72 -67 -72 -127 8 -54 70 -110 97 -193 93 -80 -4 -121 -28 -180 -105 -22
-29 -46 -53 -53 -53 -7 0 -37 27 -65 60 -29 33 -70 69 -92 80 -49 25 -130 26
-184 1 -37 -16 -52 -31 -122 -114 -31 -37 -48 -34 -84 16 -29 39 -31 46 -27
112 7 111 54 182 148 224 45 20 55 21 1910 21 1855 0 1865 -1 1910 -21z
m-3584 -449 c54 -81 148 -121 239 -99 43 10 61 23 122 86 64 66 74 73 92 63
12 -6 21 -14 21 -19 0 -4 16 -26 36 -50 102 -119 260 -113 355 13 52 69 64 73
97 38 100 -108 105 -112 159 -128 45 -13 63 -14 106 -4 45 11 61 22 124 87 52
55 75 73 86 66 8 -4 33 -32 56 -60 52 -67 108 -96 181 -96 73 0 129 29 181 96
23 28 48 56 56 60 11 7 34 -11 86 -66 63 -65 79 -76 124 -87 43 -10 61 -9 106
4 54 16 60 20 159 127 33 36 47 31 92 -31 94 -131 256 -140 360 -19 20 24 36
46 36 50 0 5 9 13 21 19 18 10 28 3 92 -63 62 -64 79 -76 124 -86 95 -23 164
10 259 122 38 45 51 42 98 -23 57 -80 158 -123 234 -101 l32 10 0 -210 0 -209
-2060 0 -2060 0 0 209 0 210 33 -10 c75 -22 176 21 233 101 19 27 40 51 47 53
20 7 46 -12 73 -53z m4003 -689 c60 -17 76 -87 29 -131 -22 -20 -25 -20 -2359
-20 l-2336 0 -27 26 c-14 15 -26 37 -26 49 0 29 35 73 63 78 37 7 4630 5 4656
-2z"/>
<path d="M2250 5023 c-372 -57 -643 -152 -930 -325 -110 -66 -259 -175 -345
-251 l-50 -45 55 -58 c30 -33 60 -60 65 -62 6 -1 42 25 80 59 90 77 307 223
421 281 204 105 484 194 690 220 86 11 93 14 89 32 -2 12 -7 51 -10 89 -7 71
-5 70 -65 60z"/>
<path d="M2895 4997 c-16 -74 -21 -149 -11 -152 6 -2 40 -8 76 -15 350 -61
737 -240 1003 -464 l71 -60 58 65 c32 35 58 66 58 69 0 10 -165 138 -255 198
-249 165 -527 284 -808 346 -176 38 -186 39 -192 13z"/>
<path d="M267 4206 c-66 -18 -113 -59 -174 -148 -81 -120 -96 -170 -91 -308 3
-101 7 -122 31 -172 55 -112 97 -147 317 -258 123 -62 211 -100 230 -100 35 0
350 154 422 207 107 78 165 216 156 372 -6 103 -32 167 -114 286 -66 94 -128
129 -229 129 -81 0 -131 -22 -199 -84 l-43 -39 -39 41 c-69 72 -172 101 -267
74z m188 -246 c77 -73 87 -80 125 -80 37 0 47 7 124 80 117 112 138 110 224
-21 51 -79 68 -153 52 -224 -24 -107 -61 -141 -255 -238 l-151 -75 -148 75
c-90 46 -163 90 -186 113 -61 61 -85 162 -59 254 12 43 100 181 121 189 45 18
70 6 153 -73z"/>
<path d="M4244 4211 c-94 -24 -174 -108 -246 -259 -40 -84 -50 -210 -23 -308
22 -82 82 -173 143 -217 72 -53 387 -207 422 -207 19 0 107 38 230 100 169 86
205 108 244 151 75 84 99 146 104 270 5 126 -8 182 -65 278 -84 142 -159 196
-273 196 -75 0 -138 -27 -190 -80 l-43 -44 -43 39 c-23 21 -60 48 -82 59 -46
23 -132 34 -178 22z m172 -251 c77 -73 87 -80 124 -80 38 0 48 7 125 80 114
109 141 109 215 -5 72 -110 86 -184 54 -280 -26 -73 -74 -114 -240 -198 l-148
-75 -151 75 c-194 97 -231 131 -255 238 -16 71 1 145 52 224 86 131 107 133
224 21z"/>
</g>
</svg>
