<?xml version="1.0" standalone="no"?>
<!DOCTYPE svg PUBLIC "-//W3C//DTD SVG 20010904//EN"
 "http://www.w3.org/TR/2001/REC-SVG-20010904/DTD/svg10.dtd">
<svg version="1.0" xmlns="http://www.w3.org/2000/svg"
 width="512.000000pt" height="512.000000pt" viewBox="0 0 512.000000 512.000000"
 preserveAspectRatio="xMidYMid meet">
<metadata>
Created by potrace 1.16, written by Peter Selinger 2001-2019
</metadata>
<g transform="translate(0.000000,512.000000) scale(0.100000,-0.100000)"
fill="#000000" stroke="none">
<path d="M593 4945 c-100 -31 -190 -112 -241 -215 l-27 -55 0 -2115 0 -2115
29 -60 c38 -77 114 -153 191 -191 l60 -29 1753 -3 c1693 -2 1755 -2 1796 16
61 27 111 75 140 134 l26 52 0 1258 0 1258 300 0 c287 0 301 1 320 20 38 38
27 84 -45 192 -36 54 -65 102 -65 108 0 6 29 54 65 108 72 108 83 154 45 192
-19 19 -33 20 -320 20 l-300 0 0 80 0 80 220 0 c207 0 221 1 240 20 38 38 27
84 -45 192 -36 54 -65 102 -65 108 0 6 29 54 65 108 72 108 83 154 45 192 -19
19 -33 20 -240 20 l-220 0 0 218 c0 189 -3 222 -19 258 -27 59 -75 109 -133
138 l-52 26 -1740 -1 c-1417 0 -1749 -3 -1783 -14z m207 -2064 l0 -1919 -99
-4 c-87 -3 -106 -7 -160 -35 l-61 -32 2 1857 c3 1764 4 1859 21 1897 21 46 70
100 110 122 33 17 96 30 150 32 l37 1 0 -1919z m2434 1760 l158 -159 -17 -52
c-24 -72 -17 -198 14 -258 28 -55 88 -115 143 -143 60 -31 186 -38 258 -14
l52 17 159 -158 159 -159 -2 -1330 c-3 -1252 -4 -1332 -21 -1358 -9 -15 -29
-35 -44 -44 -26 -17 -116 -18 -1580 -21 l-1553 -2 0 1920 0 1920 1058 0 1057
0 159 -159z m859 136 c63 -41 62 -35 65 -442 l3 -370 -97 96 -96 97 17 52 c24
72 17 198 -14 258 -28 55 -88 115 -143 143 -60 31 -186 38 -258 14 l-52 -17
-97 96 -96 97 370 -3 c335 -3 374 -5 398 -21z m-335 -327 c130 -79 74 -280
-78 -280 -85 0 -150 65 -150 150 0 85 65 150 150 150 27 0 58 -8 78 -20z m787
-317 c-10 -16 -29 -44 -42 -63 -13 -20 -23 -50 -23 -70 0 -20 10 -50 23 -70
13 -19 32 -47 42 -62 l17 -28 -121 0 -121 0 0 160 0 160 121 0 121 0 -17 -27z
m160 -800 c-10 -16 -29 -44 -42 -63 -13 -20 -23 -50 -23 -70 0 -20 10 -50 23
-70 13 -19 32 -47 42 -62 l17 -28 -201 0 -201 0 0 160 0 160 201 0 201 0 -17
-27z m-550 -2890 c-10 -69 -72 -123 -142 -123 -10 0 -13 55 -13 240 l0 240 58
1 c31 0 66 4 77 8 19 8 20 3 23 -158 2 -91 0 -185 -3 -208z m-315 277 l0 -80
-980 0 c-967 0 -980 0 -1000 -20 -27 -27 -27 -93 0 -120 20 -20 33 -20 1000
-20 l980 0 0 -80 0 -80 -1583 2 -1582 3 -45 21 c-212 99 -174 405 55 445 22 3
741 7 1598 8 l1557 1 0 -80z"/>
<path d="M2372 4300 c-119 -31 -225 -93 -318 -185 -45 -44 -96 -106 -114 -137
-32 -58 -32 -58 -79 -58 -26 0 -82 -9 -125 -20 -248 -63 -453 -268 -516 -516
-27 -105 -27 -263 0 -368 50 -196 192 -372 367 -457 l92 -44 0 -437 c1 -424 2
-439 21 -458 20 -20 33 -20 860 -20 827 0 840 0 860 20 19 19 20 33 20 474 l0
454 58 32 c31 18 93 69 137 114 140 142 205 302 205 506 0 208 -65 365 -210
511 -69 69 -102 94 -177 131 -50 26 -126 54 -167 63 l-75 17 -32 56 c-17 32
-68 93 -113 137 -94 93 -200 154 -322 185 -103 27 -270 26 -372 0z m373 -178
c129 -47 251 -156 310 -276 36 -74 52 -86 129 -97 237 -33 427 -205 476 -430
18 -80 8 -229 -18 -304 -46 -126 -154 -248 -272 -307 -97 -49 -90 -23 -90
-345 l0 -283 -120 0 -120 0 0 140 c0 127 -2 142 -20 160 -13 13 -33 20 -60 20
-27 0 -47 -7 -60 -20 -18 -18 -20 -33 -20 -160 l0 -140 -120 0 -120 0 0 140
c0 127 -2 142 -20 160 -27 27 -93 27 -120 0 -18 -18 -20 -33 -20 -160 l0 -140
-120 0 -120 0 0 140 c0 127 -2 142 -20 160 -13 13 -33 20 -60 20 -27 0 -47 -7
-60 -20 -18 -18 -20 -33 -20 -160 l0 -140 -120 0 -120 0 0 268 c0 199 -3 273
-12 285 -7 9 -44 28 -82 42 -79 29 -123 53 -188 107 -58 48 -131 155 -160 233
-26 75 -36 224 -18 304 28 131 115 258 226 334 94 64 167 88 291 96 117 8 127
14 168 96 68 139 196 245 355 291 70 21 251 13 325 -14z m535 -2282 l0 -80
-720 0 -720 0 0 80 0 80 720 0 720 0 0 -80z"/>
<path d="M2329 2824 c-53 -55 -157 -121 -234 -149 -80 -29 -95 -44 -95 -97 0
-94 86 -103 243 -25 50 25 115 66 144 91 l51 46 122 0 122 0 51 -46 c29 -25
94 -66 144 -91 157 -78 243 -69 243 25 0 53 -15 68 -95 97 -77 28 -181 94
-234 149 l-35 36 -196 0 -196 0 -35 -36z"/>
<path d="M1940 1340 c-13 -13 -20 -33 -20 -60 0 -27 7 -47 20 -60 18 -18 33
-20 180 -20 147 0 162 2 180 20 13 13 20 33 20 60 0 27 -7 47 -20 60 -18 18
-33 20 -180 20 -147 0 -162 -2 -180 -20z"/>
<path d="M2500 1340 c-13 -13 -20 -33 -20 -60 0 -27 7 -47 20 -60 19 -19 33
-20 380 -20 347 0 361 1 380 20 13 13 20 33 20 60 0 27 -7 47 -20 60 -19 19
-33 20 -380 20 -347 0 -361 -1 -380 -20z"/>
<path d="M660 620 c-13 -13 -20 -33 -20 -60 0 -27 7 -47 20 -60 19 -19 33 -20
300 -20 267 0 281 1 300 20 27 27 27 93 0 120 -19 19 -33 20 -300 20 -267 0
-281 -1 -300 -20z"/>
<path d="M1460 620 c-13 -13 -20 -33 -20 -60 0 -64 24 -80 120 -80 96 0 120
16 120 80 0 64 -24 80 -120 80 -67 0 -83 -3 -100 -20z"/>
</g>
</svg>
