<?xml version="1.0" standalone="no"?>
<!DOCTYPE svg PUBLIC "-//W3C//DTD SVG 20010904//EN"
 "http://www.w3.org/TR/2001/REC-SVG-20010904/DTD/svg10.dtd">
<svg version="1.0" xmlns="http://www.w3.org/2000/svg"
 width="512.000000pt" height="512.000000pt" viewBox="0 0 512.000000 512.000000"
 preserveAspectRatio="xMidYMid meet">
<metadata>
Created by potrace 1.16, written by Peter Selinger 2001-2019
</metadata>
<g transform="translate(0.000000,512.000000) scale(0.100000,-0.100000)"
fill="#000000" stroke="none">
<path d="M2460 4941 c-81 -26 -169 -99 -205 -171 -80 -157 -31 -358 109 -446
25 -16 44 -32 43 -35 -5 -17 -723 -1088 -729 -1089 -5 0 -989 587 -1065 636
l-23 14 30 41 c64 89 81 225 41 331 -29 75 -99 149 -176 185 -51 24 -72 28
-145 28 -70 -1 -95 -5 -142 -27 -70 -32 -136 -96 -167 -163 -36 -73 -41 -200
-11 -277 41 -111 160 -202 283 -217 l51 -6 272 -1240 c149 -682 274 -1255 278
-1273 l8 -32 -44 0 c-108 0 -202 -56 -248 -146 l-25 -49 0 -320 c0 -303 1
-322 21 -365 26 -56 76 -107 129 -131 38 -18 117 -19 1815 -19 1698 0 1777 1
1815 19 53 24 103 75 129 131 20 43 21 62 21 365 l0 320 -25 49 c-46 90 -140
146 -248 146 l-44 0 8 32 c4 18 129 591 278 1273 l272 1240 54 8 c116 16 221
91 271 192 21 43 24 64 24 150 0 84 -4 108 -23 146 -36 74 -87 125 -160 161
-61 30 -75 33 -157 33 -108 0 -159 -20 -233 -89 -128 -120 -144 -322 -36 -463
l24 -32 -22 -15 c-77 -49 -1061 -636 -1066 -636 -6 1 -724 1072 -729 1089 -1
3 18 19 43 35 177 112 198 388 41 533 -74 68 -119 86 -222 90 -49 1 -101 -1
-115 -6z m180 -193 c86 -59 108 -161 53 -237 -23 -31 -97 -71 -133 -71 -36 0
-110 40 -133 71 -76 104 4 259 133 259 32 0 57 -7 80 -22z m-2237 -502 c42
-17 84 -67 97 -114 26 -97 -59 -202 -162 -202 -40 0 -104 35 -131 72 -27 36
-34 125 -14 164 41 79 131 113 210 80z m4472 -20 c51 -39 68 -78 63 -143 -5
-63 -28 -99 -84 -130 -91 -53 -204 -2 -233 104 -19 70 25 158 94 189 46 21
117 12 160 -20z m-1921 -632 c214 -321 395 -589 402 -595 7 -5 27 -12 46 -15
30 -5 89 28 593 330 307 184 560 334 561 333 1 -1 -118 -551 -265 -1222 l-266
-1220 -1465 0 -1464 0 -267 1220 c-147 671 -266 1221 -265 1222 1 1 254 -149
561 -333 504 -302 563 -335 593 -330 19 3 39 10 46 15 7 6 188 274 402 595
214 322 391 585 394 585 3 0 180 -263 394 -585z m1368 -2602 c23 -22 23 -27
26 -280 2 -141 1 -272 -3 -290 -3 -17 -16 -41 -27 -52 -22 -20 -37 -20 -1757
-20 -1408 1 -1739 3 -1753 14 -33 25 -38 64 -38 324 0 275 4 296 50 319 20 10
379 12 1752 10 l1727 -2 23 -23z"/>
<path d="M2170 2903 c-153 -14 -309 -108 -385 -233 -61 -101 -78 -161 -78
-280 0 -122 17 -197 73 -311 71 -144 166 -265 317 -401 170 -154 409 -318 463
-318 33 0 156 74 282 168 288 218 469 437 543 657 27 82 39 214 25 292 -30
178 -164 335 -340 401 -136 51 -333 23 -461 -64 l-50 -35 -32 24 c-92 70 -238
111 -357 100z m175 -208 c31 -13 82 -49 116 -82 52 -50 66 -58 99 -58 33 0 47
8 99 58 86 83 153 110 256 105 95 -4 154 -30 222 -96 106 -103 126 -261 54
-433 -76 -181 -294 -409 -559 -584 l-73 -48 -98 66 c-235 159 -431 362 -516
534 -94 188 -78 353 46 474 92 89 238 116 354 64z"/>
<path d="M1425 916 c-94 -44 -144 -126 -145 -234 0 -104 43 -179 132 -228 44
-24 65 -29 123 -29 152 0 258 105 258 255 0 38 -7 82 -17 105 -55 131 -221
193 -351 131z m162 -178 c39 -42 31 -98 -18 -124 -80 -41 -153 70 -83 125 35
27 75 27 101 -1z"/>
<path d="M2476 930 c-141 -45 -216 -219 -152 -355 41 -89 142 -155 236 -155
96 0 200 70 240 162 52 121 -4 273 -123 334 -37 20 -158 28 -201 14z m138
-196 c32 -33 33 -65 3 -100 -17 -20 -33 -27 -57 -27 -24 0 -40 7 -57 27 -30
35 -29 67 3 100 35 34 73 34 108 0z"/>
<path d="M3475 916 c-98 -46 -148 -125 -148 -236 0 -150 106 -255 258 -255 58
0 79 5 123 29 89 49 132 124 132 228 0 149 -107 257 -255 258 -43 0 -75 -7
-110 -24z m159 -177 c45 -35 33 -105 -22 -128 -40 -17 -79 0 -96 41 -16 36
-12 53 17 86 26 28 66 28 101 1z"/>
</g>
</svg>
