<?xml version="1.0" encoding="UTF-8" standalone="no" ?>
<!DOCTYPE svg PUBLIC "-//W3C//DTD SVG 1.1//EN" "http://www.w3.org/Graphics/SVG/1.1/DTD/svg11.dtd">
<svg xmlns="http://www.w3.org/2000/svg" xmlns:xlink="http://www.w3.org/1999/xlink" version="1.1" width="640" height="480" viewBox="0 0 640 480" xml:space="preserve">
<desc>Created with Fabric.js 3.6.6</desc>
<defs>
</defs>
<g transform="matrix(0.11 0 0 -0.11 329.38 239.74)"  >
<path style="stroke: none; stroke-width: 1; stroke-dasharray: none; stroke-linecap: butt; stroke-dashoffset: 0; stroke-linejoin: miter; stroke-miterlimit: 4; fill: rgb(0,0,0); fill-rule: nonzero; opacity: 1;"  transform=" translate(-4258.49, -7675.99)" d="M 3272 9619 c -99 -12 -291 -56 -377 -86 c -227 -82 -362 -201 -389 -344 c -3 -20 -17 -46 -31 -59 c -24 -22 -25 -27 -20 -109 c 8 -128 8 -133 0 -173 c -5 -26 -2 -53 9 -88 c 15 -45 15 -52 1 -73 c -12 -19 -13 -34 -5 -82 c 5 -33 18 -71 27 -85 c 14 -19 17 -37 13 -75 c -5 -47 -8 -51 -49 -74 c -64 -35 -169 -138 -197 -192 c -13 -26 -27 -67 -30 -91 c -4 -24 -18 -56 -31 -72 c -22 -26 -23 -34 -17 -105 c 4 -42 11 -87 16 -100 c 5 -15 4 -36 -4 -57 c -9 -27 -9 -45 1 -86 c 7 -29 12 -66 11 -83 c -5 -110 -2 -153 16 -185 c 10 -19 19 -53 19 -75 c 1 -66 57 -172 123 -232 l 56 -52 l -17 -36 c -9 -20 -17 -49 -17 -65 c 0 -18 -10 -39 -29 -57 c -27 -28 -28 -32 -24 -104 c 2 -40 9 -84 15 -96 c 8 -16 6 -32 -7 -66 c -16 -42 -16 -49 0 -103 c 13 -47 14 -62 4 -80 c -16 -30 -6 -124 17 -159 c 10 -15 18 -47 19 -74 c 4 -219 357 -421 822 -472 c 123 -13 823 -1 823 14 c 0 6 27 8 76 4 c 82 -7 157 0 148 14 c -3 5 -25 9 -50 9 c -31 0 -43 4 -38 11 c 7 11 145 6 215 -8 c 18 -3 29 -1 29 6 c 0 6 -15 11 -32 11 c -52 0 -79 11 -76 29 c 2 9 12 15 22 14 c 138 -12 230 -14 221 -4 c -6 5 -46 14 -89 18 c -53 5 -81 13 -84 22 c -3 10 5 12 39 7 c 87 -13 272 -19 265 -8 c -3 5 -26 13 -51 16 c -71 11 -43 27 33 20 c 47 -5 64 -3 57 4 c -5 6 -23 12 -39 14 c -50 5 -44 28 8 28 c 55 0 62 19 9 22 c -64 2 -66 3 -71 16 c -2 8 11 12 45 13 c 37 1 27 4 -44 13 c -50 6 -95 14 -99 18 c -7 8 7 8 106 8 l 55 -1 l -35 31 c -19 17 -52 38 -73 47 c -32 14 -37 21 -31 38 c 4 11 8 43 9 70 c 1 28 9 67 18 87 c 22 48 24 190 3 207 c -7 6 -16 36 -18 66 c -3 31 -12 63 -21 73 c -24 27 -21 53 12 99 c 16 22 31 51 33 64 c 2 20 11 10 53 -56 c 104 -169 233 -342 400 -540 c 183 -216 362 -365 477 -400 c 32 -9 92 -15 157 -15 c 58 0 133 -6 166 -12 c 84 -17 253 -16 285 2 c 25 14 25 14 -17 20 c -64 9 -66 23 -3 16 c 30 -3 61 -2 69 3 c 10 6 -4 11 -45 16 c -72 8 -154 26 -154 35 c 0 3 42 5 93 2 l 92 -3 l -25 20 c -39 31 -153 44 -163 19 c -3 -10 -7 -10 -17 -1 c -10 9 -6 15 16 26 c 42 22 93 75 109 114 c 15 36 26 41 45 18 c 15 -18 76 -20 87 -2 c 4 6 17 17 28 23 c 11 6 21 24 23 40 c 2 16 16 43 32 59 c 62 67 76 125 55 229 c -26 128 -100 274 -248 496 c -116 174 -305 418 -386 500 c -8 8 -48 58 -90 110 c -129 163 -173 211 -269 291 c -100 83 -154 113 -231 130 c -58 12 -118 0 -146 -31 c -13 -14 -31 -20 -64 -20 c -57 0 -135 -48 -231 -142 c -43 -42 -79 -68 -105 -76 c -44 -13 -116 -75 -140 -122 c -21 -40 -35 -38 -35 6 c 0 20 -6 48 -14 62 c -7 15 -19 50 -25 77 c -7 28 -21 60 -32 71 l -20 22 l 20 40 c 11 22 25 43 31 47 c 6 3 10 50 10 108 c 0 143 0 143 86 182 c 76 35 155 100 180 146 c 8 16 14 50 14 77 c 0 27 8 64 17 83 c 23 46 28 195 8 226 c -8 12 -15 41 -15 64 c 0 24 -9 58 -22 80 l -22 39 l 34 48 c 28 40 35 59 41 127 c 4 44 10 96 14 116 c 16 82 -96 213 -236 278 c -194 90 -363 133 -589 151 c -157 12 -492 11 -598 -1 z m 608 -34 c 229 -24 526 -111 640 -186 c 166 -112 177 -208 44 -390 c -19 -26 -34 -51 -34 -57 c 0 -17 -42 -42 -70 -42 c -14 0 -34 -6 -45 -14 c -37 -25 -124 -45 -228 -51 c -56 -4 -133 -15 -170 -26 c -59 -17 -100 -20 -311 -21 c -133 0 -251 2 -262 5 c -10 4 -74 11 -142 16 c -67 6 -127 13 -133 17 c -6 3 -37 8 -68 11 c -38 2 -59 9 -66 20 c -55 89 -100 152 -103 143 c -2 -5 14 -42 37 -80 l 40 -70 l -30 0 c -35 0 -35 -2 -4 -64 c 18 -35 25 -43 25 -27 c 0 12 5 31 10 42 c 9 16 14 17 32 8 c 12 -7 39 -9 66 -5 c 48 7 72 -5 72 -34 c 0 -10 7 -24 16 -31 c 14 -11 18 -10 30 6 c 14 19 15 19 20 -3 c 8 -28 24 -29 31 -1 c 5 18 11 20 44 15 c 31 -5 39 -3 39 9 c 0 17 16 20 25 5 c 3 -6 17 -7 31 -4 c 26 7 35 -13 9 -22 c -8 -4 -15 -11 -15 -18 c 0 -6 -9 -17 -20 -24 c -11 -7 -20 -19 -20 -28 c 0 -9 9 -18 20 -21 c 11 -3 20 -9 20 -14 c 0 -5 5 -9 10 -9 c 6 0 10 11 10 24 c 0 14 -4 28 -10 31 c -16 10 -11 21 15 33 c 14 6 25 18 25 27 c 0 11 11 15 38 15 c 44 0 81 -26 79 -55 c -1 -12 5 -21 17 -23 c 15 -3 18 0 12 21 c -3 14 -8 32 -11 39 c -5 12 32 16 217 25 c 232 11 254 9 243 -28 c -10 -29 3 -41 28 -28 c 12 7 25 17 29 22 c 9 15 -2 37 -20 37 c -27 0 2 21 42 30 c 35 8 36 7 36 -21 c 0 -40 29 -39 37 1 c 7 37 40 42 45 8 c 2 -15 11 -24 25 -26 c 14 -2 20 -8 16 -18 c -3 -8 1 -14 11 -14 c 19 0 21 -14 4 -27 c -7 -6 -51 -25 -98 -43 c -70 -26 -98 -32 -157 -30 c -54 1 -81 -4 -111 -19 c -39 -20 -101 -24 -317 -22 c -91 1 -406 20 -485 29 c -123 14 -386 69 -436 91 c -50 23 -150 96 -158 117 c -4 11 4 14 32 14 c 21 0 43 -5 49 -11 c 7 -7 19 -8 30 -4 c 10 5 26 7 36 6 c 10 -1 21 8 27 24 c 15 40 13 45 -25 45 c -19 0 -35 3 -35 8 c 0 10 50 7 80 -5 c 14 -6 62 -19 107 -29 l 81 -18 l -32 -25 c -17 -13 -24 -21 -15 -18 c 9 3 21 1 27 -5 c 15 -15 32 -1 32 27 c 0 15 -10 30 -28 40 c -28 17 -34 24 -122 155 c -57 85 -68 74 -15 -14 c 19 -32 32 -62 29 -67 c -3 -5 1 -9 9 -9 c 17 0 43 -28 34 -36 c -12 -12 -57 7 -57 24 c 0 9 -6 27 -13 39 c -61 109 -89 152 -103 164 c -15 12 -16 11 -10 -11 c 4 -14 30 -62 57 -107 c 27 -45 49 -84 49 -87 c 0 -12 -59 17 -91 44 c -33 29 -33 30 -11 36 c 12 3 22 9 22 11 c 0 14 -47 59 -58 55 c -6 -2 -22 17 -34 42 c -20 42 -45 66 -32 31 c 4 -8 1 -15 -5 -15 c -15 0 -14 11 11 87 c 30 94 83 149 206 211 c 218 112 452 157 827 161 c 77 0 201 -6 275 -14 z m 715 -637 c -7 -18 -20 -34 -29 -36 c -9 -2 -16 -11 -16 -21 c 0 -18 -71 -92 -107 -110 c -16 -8 -23 -8 -26 2 c -4 7 -6 6 -6 -4 c -1 -17 -29 -29 -67 -29 c -28 0 -51 27 -36 42 c 6 6 8 17 5 24 c -3 10 3 14 20 14 c 14 0 27 -6 30 -14 c 8 -21 62 -5 61 17 c -2 21 51 67 76 67 c 11 0 36 18 56 40 c 45 48 58 51 39 8 z m -2044 -318 c 103 -101 300 -170 600 -209 c 234 -31 418 -43 582 -39 c 125 2 147 1 148 -12 c 1 -12 2 -12 6 1 c 3 12 21 18 66 23 c 94 9 358 62 400 80 c 21 8 54 29 75 45 c 64 53 146 111 155 111 c 5 0 18 11 29 25 c 22 29 38 32 38 9 c 0 -10 -6 -14 -14 -11 c -9 4 -16 -3 -20 -17 c -3 -13 -15 -26 -26 -29 c -30 -8 -24 -40 10 -59 c 30 -17 42 -45 15 -34 c -8 3 -15 1 -15 -3 c 0 -5 5 -11 12 -13 c 7 -3 -2 -13 -20 -23 c -39 -24 -43 -55 -7 -55 c 30 0 30 1 3 -58 c -34 -72 -92 -122 -203 -177 c -80 -39 -111 -49 -152 -50 c -29 0 -53 3 -53 6 c 0 6 -109 -25 -162 -46 c -10 -4 -18 -3 -18 2 c 0 5 17 15 38 22 c 56 21 123 53 118 58 c -2 2 -44 -12 -92 -33 c -136 -56 -246 -82 -228 -52 c 5 8 2 9 -12 4 c -10 -4 -35 -10 -54 -12 l -35 -5 l 30 15 c 35 17 19 21 -22 5 c -47 -19 -136 -38 -173 -38 c -28 0 -20 5 45 25 c 44 14 85 31 90 36 c 7 8 5 9 -5 6 c -62 -22 -216 -58 -265 -62 c -66 -6 -70 -8 78 35 c 38 11 67 22 65 24 c -2 2 -49 -7 -105 -20 c -56 -14 -133 -27 -170 -30 l -68 -5 l 65 20 l 65 19 l -55 -6 c -30 -3 -65 -9 -78 -14 c -32 -12 -102 -11 -102 1 c 0 6 -23 10 -52 10 c -56 0 -58 7 -6 21 c 22 6 10 6 -39 3 c -73 -6 -113 0 -113 17 c 0 5 17 10 38 10 l 37 2 l -45 8 c -25 4 -66 8 -92 8 c -51 1 -78 9 -78 22 c 0 5 8 9 18 9 c 14 0 15 2 2 10 c -8 5 -30 10 -48 10 c -61 0 -117 43 -136 103 c -3 11 -15 21 -25 24 c -11 3 -22 12 -26 20 c -11 31 5 25 45 -15 c 28 -28 53 -42 80 -47 c 22 -4 40 -3 40 2 c 0 4 -20 21 -45 36 c -25 16 -45 35 -45 42 c 0 7 -12 15 -27 19 c -16 3 -39 15 -52 26 c -22 19 -23 21 -7 45 c 16 25 15 27 -14 29 c -33 2 -78 144 -53 169 c 10 10 9 11 64 -43 z m 9 -321 c 27 -43 80 -91 145 -128 c 55 -32 286 -122 296 -115 c 5 2 27 -5 50 -16 c 22 -12 38 -17 34 -11 c -10 17 28 13 53 -5 c 15 -10 32 -14 48 -10 c 14 4 31 3 37 -2 c 23 -19 115 -32 140 -21 c 19 9 32 7 65 -10 c 46 -23 52 -25 52 -13 c 0 5 -11 15 -25 22 c -40 21 -22 22 27 1 c 31 -13 50 -16 61 -9 c 10 5 27 6 38 3 c 13 -5 25 -2 30 6 c 6 11 13 10 35 -1 c 18 -10 29 -11 31 -4 c 3 10 41 10 81 -2 c 14 -4 22 -2 22 6 c 0 12 13 11 55 -6 c 19 -7 20 -7 2 13 c -18 21 -18 21 24 12 c 23 -5 50 -14 60 -19 c 23 -13 32 -13 24 0 c -4 7 16 9 59 7 c 37 -2 63 0 60 5 c -6 9 32 2 76 -14 c 16 -6 26 -6 28 1 c 2 6 8 9 13 5 c 5 -3 12 2 15 10 c 8 21 24 10 24 -15 c 0 -10 4 -19 9 -19 c 19 0 72 53 67 66 c -3 8 1 14 9 14 c 8 0 15 -2 15 -5 c 0 -12 -62 -124 -74 -134 c -8 -7 -18 -25 -21 -41 c -8 -36 -37 -62 -73 -65 c -16 -1 -39 -11 -51 -22 c -24 -22 -104 -49 -118 -40 c -5 3 -29 -1 -52 -9 c -45 -15 -67 -11 -41 7 c 12 9 10 9 -5 3 c -11 -4 -49 -15 -85 -25 c -36 -10 -85 -25 -109 -33 c -24 -9 -73 -16 -110 -15 l -66 1 l 60 28 c 33 16 58 29 55 29 c -3 1 -44 -12 -90 -29 c -84 -29 -136 -38 -126 -21 c 3 5 17 12 31 15 c 42 11 137 48 133 52 c -3 2 -51 -12 -109 -31 c -99 -33 -199 -54 -199 -42 c 0 3 23 13 51 22 c 28 9 48 19 45 22 c -6 6 -130 -25 -159 -39 c -10 -5 -33 -6 -50 -2 l -32 7 l 50 23 c 55 26 49 33 -7 9 c -49 -20 -163 -31 -172 -16 c -5 7 1 11 16 11 c 13 1 34 8 48 16 c 17 11 19 13 5 9 c -11 -4 -58 -13 -105 -20 c -70 -11 -95 -12 -145 -1 c -33 7 -53 16 -45 19 c 8 3 22 8 30 11 c 8 2 -19 2 -60 -1 c -41 -3 -76 -9 -78 -13 c -2 -5 -11 -6 -21 -3 c -28 7 -33 -11 -14 -49 c 25 -46 35 -51 55 -25 c 15 19 18 20 18 4 c 0 -10 5 -15 10 -12 c 6 3 10 15 10 25 c 0 10 4 21 9 24 c 14 9 103 -32 119 -55 c 7 -10 17 -17 22 -14 c 14 9 -1 42 -23 53 l -22 11 l 23 0 c 13 1 34 -11 48 -26 c 23 -25 25 -25 38 -8 c 17 23 35 12 29 -19 c -6 -30 16 -46 24 -16 c 5 19 10 21 43 15 c 32 -5 39 -3 42 11 c 3 16 4 16 22 -2 c 14 -13 21 -15 24 -6 c 5 15 32 16 32 2 c 0 -6 -7 -13 -15 -16 c -8 -4 -15 -12 -15 -19 c 0 -7 -7 -15 -15 -19 c -19 -7 -20 -56 -1 -56 c 8 0 16 -6 19 -12 c 3 -10 7 -10 17 -1 c 11 10 9 17 -5 39 c -14 22 -15 29 -5 32 c 8 3 24 16 37 28 c 26 27 43 33 23 9 c -10 -13 -9 -15 8 -15 c 15 0 20 5 16 15 c -7 18 -6 18 34 4 c 47 -16 54 -61 10 -72 c -23 -6 -20 -30 5 -35 c 12 -2 17 3 17 17 c 0 14 6 21 20 21 c 21 0 27 15 10 25 c -5 3 -10 17 -10 29 c 0 23 1 23 180 30 c 99 4 194 11 211 16 c 25 8 37 6 56 -10 c 14 -11 19 -21 13 -25 c -17 -10 -11 -35 8 -35 c 39 0 58 51 25 65 c -15 6 -13 9 12 21 c 47 21 65 18 65 -10 c 0 -14 4 -27 9 -31 c 12 -7 26 14 26 40 c 0 11 8 21 18 23 c 10 2 17 -3 17 -12 c 0 -8 9 -20 21 -27 c 17 -9 24 -7 40 10 c 23 24 24 35 4 27 c -8 -3 -15 -2 -15 3 c 0 17 55 20 67 4 c 11 -14 17 -14 38 -5 c 14 7 25 18 23 26 c -3 15 67 76 88 76 c 7 0 27 20 45 45 c 18 25 36 45 40 45 c 3 0 9 9 12 20 c 3 11 10 20 16 20 c 17 0 13 -15 -9 -35 c -11 -10 -22 -33 -26 -51 c -3 -19 -12 -34 -20 -34 c -8 0 -14 -6 -14 -14 c 0 -19 -26 -40 -35 -26 c -9 15 -25 12 -25 -4 c 0 -8 7 -17 16 -20 c 15 -6 14 -9 -6 -31 c -12 -13 -51 -39 -86 -57 c -55 -28 -67 -31 -84 -20 c -26 16 -40 15 -40 -3 c 0 -8 -5 -15 -12 -15 c -6 0 -9 -2 -6 -5 c 3 -3 17 -1 32 5 c 21 8 27 7 24 -2 c -3 -12 -104 -67 -173 -95 c -17 -7 -59 -12 -95 -12 c -63 1 -82 -4 -144 -38 c -25 -14 -37 -14 -78 -4 c -28 8 -65 10 -89 6 c -34 -6 -44 -3 -64 15 c -28 26 -55 21 -55 -11 c 0 -18 -4 -20 -22 -14 c -13 4 -102 11 -198 16 c -204 9 -312 21 -395 42 c -33 9 -96 21 -140 27 c -88 12 -202 62 -260 115 c -19 17 -50 61 -69 99 c -30 58 -36 79 -36 133 c 0 40 4 62 10 58 c 6 -3 15 -3 22 1 c 8 5 6 11 -6 20 c -12 8 -14 14 -6 19 c 15 9 41 -15 68 -63 l 21 -38 l -45 -13 c -24 -7 -44 -18 -44 -25 c 0 -14 39 -79 54 -88 c 19 -13 27 -9 37 22 c 14 38 26 38 31 0 c 3 -23 1 -29 -8 -26 c -24 9 -24 -11 -2 -40 c 15 -19 18 -29 10 -32 c -7 -2 -12 -11 -12 -19 c 0 -11 7 -14 25 -9 c 18 5 25 2 25 -9 c 0 -8 5 -15 10 -15 c 6 0 10 13 10 29 c 0 46 23 57 63 32 c 41 -25 51 -26 43 -5 c -4 9 -1 23 5 30 c 11 14 12 14 -36 29 c -8 2 -21 -3 -30 -11 c -19 -19 -20 -4 -1 21 c 13 17 16 18 72 3 c 99 -27 134 -31 134 -15 c 0 10 -26 19 -80 30 c -51 10 -105 30 -145 53 c -64 35 -75 47 -55 59 c 6 3 -19 31 -55 62 l -66 56 l 7 46 c 9 61 54 148 97 190 c 42 39 146 101 161 95 c 6 -3 22 -23 36 -45 z m 2602 -406 c 97 -38 232 -156 368 -323 c 42 -52 117 -140 165 -195 c 287 -327 547 -731 596 -928 c 15 -62 8 -162 -14 -184 c -16 -16 -17 -16 -17 10 c 0 15 -4 27 -10 27 c -5 0 -10 9 -10 20 c 0 11 -7 23 -15 26 c -8 4 -15 17 -15 30 c 0 15 -6 24 -15 24 c -9 0 -15 9 -15 25 c 0 27 -15 34 -24 10 c -3 -8 -12 -15 -20 -15 c -12 0 -11 -9 5 -50 c 17 -46 18 -50 2 -50 c -13 0 -14 -3 -6 -11 c 9 -9 16 -8 27 3 c 8 9 12 18 9 22 c -4 3 -1 6 5 6 c 7 0 12 -9 12 -20 c 0 -11 5 -20 11 -20 c 6 0 8 -8 4 -19 c -3 -11 -2 -22 3 -25 c 6 -3 13 -27 17 -52 c 9 -60 -8 -104 -41 -104 c -14 0 -24 6 -24 14 c 0 7 -7 19 -15 26 c -17 14 -3 50 20 50 c 22 0 18 28 -4 40 c -37 19 -77 9 -53 -14 c 10 -10 10 -56 0 -56 c -4 0 -8 9 -8 20 c 0 11 -4 20 -10 20 c -14 0 -12 38 2 42 c 10 4 10 10 1 30 c -8 18 -8 29 -1 36 c 6 6 7 15 3 22 c -5 8 -15 4 -33 -12 c -21 -20 -24 -20 -18 -4 c 3 10 1 25 -5 32 c -14 17 -4 48 14 41 c 45 -19 47 -19 47 -3 c 0 10 -15 23 -33 31 c -43 18 -59 36 -47 55 c 8 13 10 12 10 -2 c 0 -23 19 -33 26 -14 c 7 18 -18 46 -40 46 c -9 0 -21 9 -28 20 c -7 11 -21 20 -32 20 c -13 0 -17 -5 -13 -20 c 3 -11 2 -20 -2 -20 c -11 0 -31 47 -31 70 c 0 26 -26 26 -33 0 c -8 -29 -35 -15 -52 27 c -18 43 -18 43 0 43 c 9 0 15 10 15 26 c 0 23 -3 25 -25 20 c -18 -5 -27 -1 -35 14 c -14 26 -4 43 21 35 c 16 -5 19 -1 19 24 c 0 17 5 31 10 31 c 6 0 10 6 10 14 c 0 9 -7 12 -20 9 c -11 -3 -20 -9 -20 -14 c 0 -13 -21 -11 -54 6 c -15 8 -39 15 -52 15 c -21 0 -24 5 -24 35 c 0 25 -4 35 -16 35 c -11 0 -14 6 -9 20 c 4 12 -1 30 -12 44 c -22 31 -37 33 -28 6 c 3 -11 3 -20 0 -20 c -6 0 -75 69 -75 75 c 0 9 40 11 43 1 c 2 -6 8 -7 13 -3 c 5 5 1 13 -9 18 c -20 12 -23 45 -4 52 c 6 2 9 7 6 11 c -3 4 -19 2 -34 -4 c -23 -9 -28 -8 -32 10 c -4 15 -11 19 -26 14 c -16 -5 -19 -3 -13 11 c 9 23 -11 45 -40 45 c -16 0 -24 6 -24 18 c 0 17 -87 119 -182 214 c -44 44 -46 48 -28 58 c 24 13 15 43 -10 35 c -24 -8 -65 46 -48 63 c 14 14 14 13 -30 17 c -18 1 -45 8 -61 15 c -46 19 -53 60 -10 60 c 10 0 19 6 19 14 c 0 24 -18 28 -43 11 c -45 -29 -81 8 -49 50 c 9 14 25 25 35 25 c 21 0 23 30 2 30 c -9 0 -18 -7 -21 -15 c -4 -8 -18 -15 -33 -15 c -15 0 -32 -5 -38 -11 c -8 -8 -25 -4 -62 16 c -42 24 -51 33 -51 56 c 0 38 9 43 96 55 c 51 7 85 -9 160 -77 c 31 -28 58 -48 61 -45 c 5 5 -48 76 -58 76 c -6 0 -79 69 -79 75 c 0 19 133 18 182 -2 z m -351 -189 c 10 -12 8 -13 -6 -8 c -13 5 -16 4 -11 -4 c 4 -7 19 -12 33 -12 c 17 0 23 -4 20 -14 c -7 -17 11 -36 28 -30 c 7 3 16 1 20 -5 c 4 -7 -1 -8 -12 -4 c -26 9 186 -197 213 -207 c 27 -11 38 -2 22 19 c -7 9 -1 6 13 -7 c 19 -18 21 -24 11 -31 c -10 -6 4 -28 58 -87 c 39 -44 79 -90 88 -104 c 35 -54 133 -180 145 -187 c 8 -4 50 -66 94 -138 c 44 -71 94 -152 111 -180 c 17 -27 63 -104 103 -170 c 39 -66 93 -154 119 -195 c 28 -43 50 -92 54 -116 c 3 -23 18 -67 32 -98 c 14 -32 24 -59 23 -61 c -2 -2 -44 67 -93 153 c -50 87 -122 207 -161 267 c -39 61 -80 126 -90 145 c -11 19 -32 56 -48 82 c -16 26 -26 52 -22 58 c 3 5 -1 10 -10 10 c -9 0 -15 6 -12 13 c 5 14 -10 38 -102 160 c -36 48 -72 87 -79 87 c -8 0 -12 6 -8 15 c 3 8 0 14 -6 12 c -7 -1 -12 5 -13 13 c 0 8 -5 15 -11 15 c -15 0 -93 87 -209 235 c -54 69 -137 163 -184 210 c -80 79 -161 172 -161 183 c 0 10 40 -5 51 -19 z m -167 -64 c 14 -5 32 -22 40 -39 c 10 -18 29 -34 49 -40 c 19 -7 39 -22 45 -35 c 6 -13 28 -37 49 -52 c 65 -47 133 -122 127 -139 c -4 -8 -1 -22 6 -30 c 11 -14 15 -14 30 0 c 14 13 20 14 26 4 c 4 -7 2 -15 -4 -17 c -7 -2 -12 -12 -12 -23 c 0 -18 10 -23 37 -20 c 23 3 45 -45 38 -82 c -5 -23 -3 -37 6 -43 c 7 -4 14 -3 17 4 c 6 19 18 14 37 -14 c 15 -23 15 -27 1 -43 c -26 -29 -20 -43 17 -36 c 44 9 83 -22 98 -78 c 6 -23 31 -67 55 -99 c 37 -49 41 -59 27 -66 c -27 -16 -8 -40 34 -44 c 31 -2 39 -7 41 -25 c 2 -15 -2 -23 -11 -23 c -8 0 -20 -6 -26 -14 c -10 -12 -8 -19 10 -37 l 23 -23 l 14 22 c 18 27 27 27 55 1 c 21 -19 21 -21 5 -33 c -22 -17 -22 -25 2 -54 c 13 -16 25 -21 42 -17 c 20 5 29 -4 67 -60 c 24 -35 52 -72 63 -81 c 10 -10 18 -31 18 -49 c 0 -18 9 -44 21 -59 c 16 -20 18 -30 10 -40 c -8 -10 -6 -17 8 -30 c 18 -17 20 -17 29 1 c 12 20 11 21 40 -30 c 12 -21 22 -49 22 -62 c 0 -17 6 -25 23 -27 c 15 -2 23 -11 25 -28 c 2 -14 11 -33 19 -42 c 26 -29 9 -50 -34 -43 c -83 13 -84 14 -77 39 c 4 18 0 27 -15 36 c -17 9 -22 8 -27 -4 c -5 -12 -11 -13 -24 -6 c -29 15 -30 13 -15 -29 c 23 -66 59 -120 83 -126 c 27 -7 27 -38 0 -43 c -11 -2 -18 5 -20 20 c -3 25 -42 36 -130 37 c -25 1 -53 4 -62 7 c -30 11 -16 24 27 25 c 24 1 31 3 17 6 c -57 9 -70 14 -70 29 c 0 14 8 15 48 9 c 26 -4 44 -4 40 0 c -7 7 -76 25 -117 30 c -13 2 -27 8 -30 14 c -4 5 -15 9 -25 8 c -15 -2 -24 13 -43 71 c -30 89 -41 90 -14 1 c 11 -35 18 -65 15 -68 c -18 -18 -44 32 -86 160 c -25 79 -47 137 -47 128 c -1 -9 6 -38 14 -65 c 17 -58 17 -54 8 -54 c -19 1 -46 32 -53 62 c -35 135 -73 265 -81 273 c -13 13 -11 -20 6 -90 c 8 -33 14 -70 15 -83 c 0 -20 -3 -21 -20 -12 c -11 6 -20 19 -20 30 c 0 11 -6 34 -14 52 c -8 18 -25 76 -37 128 c -12 52 -24 89 -26 83 c -3 -7 5 -50 16 -95 c 25 -99 26 -115 7 -99 c -15 13 -54 116 -88 235 c -12 44 -24 74 -26 68 c -2 -7 5 -45 17 -84 c 48 -175 50 -196 17 -162 c -10 9 -15 23 -11 32 c 3 8 -1 22 -8 31 c -8 9 -17 25 -19 36 c -39 144 -71 252 -78 259 c -9 9 -4 -10 40 -167 c 12 -43 19 -81 16 -84 c -10 -10 -45 27 -48 50 c -2 16 -12 23 -41 28 c -43 7 -42 6 -51 37 c -9 27 5 29 29 2 c 23 -25 50 -27 40 -2 c -3 9 -26 77 -50 149 c -44 132 -72 200 -59 138 c 4 -16 24 -79 45 -140 c 24 -70 33 -111 26 -114 c -15 -6 -67 56 -67 80 c 0 12 -7 33 -15 47 c -11 22 -49 140 -92 285 c -2 10 -7 17 -9 14 c -2 -2 7 -45 20 -96 c 14 -51 20 -91 15 -91 c -6 0 -1 -12 10 -26 c 25 -31 26 -44 6 -44 c -18 0 -35 31 -35 63 c 0 13 -3 27 -7 31 c -4 3 -22 50 -40 104 c -18 53 -31 86 -28 72 c 3 -14 8 -38 11 -55 l 6 -30 l -26 28 c -14 15 -26 35 -26 43 c 0 11 -6 13 -20 9 c -11 -4 -20 -2 -20 4 c 0 5 -11 22 -25 37 c -14 15 -26 36 -26 48 c -1 17 -2 18 -6 4 c -14 -55 -58 17 -58 96 c 0 55 4 66 34 104 c 19 23 42 42 52 42 c 10 0 38 -18 63 -39 c 25 -22 55 -42 66 -46 c 11 -3 20 -13 20 -21 c 0 -8 20 -33 44 -55 c 25 -23 51 -58 59 -78 c 9 -21 32 -50 52 -65 c 19 -15 50 -52 66 -82 c 31 -54 63 -82 73 -65 c 6 10 -52 131 -63 131 c -4 0 -26 16 -49 36 c -34 29 -42 42 -42 70 c 0 28 -4 34 -22 35 c -22 0 -80 59 -59 59 c 6 0 11 7 11 15 c 0 21 -30 19 -30 -2 c -1 -13 -9 -9 -33 18 c -18 20 -41 40 -52 44 c -18 7 -18 9 -2 12 c 9 3 17 11 17 19 c 0 16 -16 19 -25 4 c -4 -6 -16 -3 -32 10 c -14 11 -32 20 -40 20 c -8 0 -11 5 -8 10 c 3 6 14 10 24 10 c 11 0 21 10 25 22 c 4 18 8 20 18 10 c 16 -16 31 -15 25 2 c -5 13 5 23 25 25 c 4 1 18 -3 32 -9 z m -286 -110 c -2 -33 -6 -60 -9 -60 c -12 0 -20 35 -10 38 c 14 5 14 32 2 32 c -6 0 -22 -11 -37 -25 c -22 -21 -25 -27 -14 -40 c 7 -8 21 -15 31 -15 c 11 0 19 -2 19 -4 c 0 -2 3 -12 7 -22 c 5 -14 3 -16 -11 -11 c -14 5 -17 3 -12 -8 c 3 -9 -4 -21 -19 -31 c -30 -20 -32 -44 -5 -51 c 22 -6 27 -31 8 -38 c -7 -3 -14 -20 -14 -37 c -1 -26 -14 -44 -62 -89 c -174 -164 -442 -246 -839 -256 c -188 -5 -434 7 -523 26 l -35 7 l 50 16 c 72 23 105 30 105 20 c 0 -4 -12 -13 -27 -19 l -28 -11 l 27 -1 c 32 -1 138 38 138 51 c 0 6 -7 7 -16 4 c -40 -15 -65 -17 -79 -6 c -11 9 -34 7 -107 -11 c -51 -12 -98 -26 -104 -30 c -11 -9 -31 -6 -109 18 c -159 47 -309 122 -298 149 c 7 18 13 18 28 -3 c 7 -10 17 -13 25 -8 c 10 6 8 10 -8 16 c -12 5 -22 13 -22 19 c 0 17 36 11 55 -10 c 19 -21 45 -27 45 -11 c 0 5 -8 12 -17 14 c -10 3 5 4 32 2 c 28 -1 58 -6 68 -10 c 27 -11 20 -26 -9 -19 c -19 5 -25 4 -20 -5 c 11 -17 63 -14 70 5 c 14 38 -46 65 -117 54 c -45 -6 -53 -4 -95 25 c -26 18 -47 38 -47 46 c 0 8 -11 16 -24 17 c -14 2 -35 11 -49 20 c -23 15 -24 24 -7 64 c 5 12 1 17 -17 20 c -31 4 -59 63 -60 127 c -1 28 1 54 5 57 c 3 4 28 -18 56 -48 c 63 -69 117 -98 266 -141 c 151 -44 199 -54 305 -62 c 47 -4 95 -14 107 -21 c 13 -8 33 -12 47 -8 c 14 3 47 -1 74 -10 c 27 -9 56 -14 66 -10 c 10 4 25 -1 37 -12 c 19 -17 21 -17 50 0 c 29 17 69 14 69 -5 c 0 -19 31 -21 50 -4 c 16 14 23 15 34 6 c 11 -9 19 -9 35 1 c 18 11 23 10 35 -7 c 15 -20 15 -20 31 3 c 18 25 72 30 106 10 c 17 -11 22 -10 30 5 c 12 21 49 23 49 2 c 0 -8 7 -15 16 -15 c 11 0 15 6 11 19 c -4 16 5 20 70 31 c 91 14 226 53 297 84 c 29 13 88 55 132 95 c 43 39 83 71 87 71 c 5 0 20 14 34 30 c 13 17 29 30 34 30 c 6 0 9 -26 7 -60 z m 52 -447 c 6 -27 11 -55 11 -63 c -1 -8 -3 -40 -6 -70 c -3 -45 -2 -48 4 -17 c 12 59 23 57 21 -3 c -2 -79 -2 -80 20 -80 c 13 0 20 7 20 20 c 0 11 5 20 10 20 c 18 0 10 -26 -20 -68 c -16 -22 -38 -58 -48 -79 c -14 -30 -23 -37 -42 -35 c -13 1 -33 -7 -45 -18 c -45 -43 -233 -90 -356 -90 c -30 0 -55 -7 -70 -19 c -34 -26 -95 -33 -334 -36 c -288 -5 -346 10 -220 54 c 99 35 72 35 -36 0 c -97 -32 -161 -38 -184 -19 c -10 8 -15 8 -20 0 c -5 -7 -20 -10 -39 -6 c -17 3 -51 8 -76 11 c -63 8 -112 25 -107 38 c 2 6 29 19 61 30 c 81 27 62 33 -28 8 c -80 -22 -151 -27 -175 -12 c -15 9 16 21 97 37 c 18 4 35 11 38 16 c 4 6 -1 8 -12 4 c -11 -3 -59 -10 -109 -16 c -49 -6 -97 -13 -106 -16 c -9 -2 -24 5 -34 16 c -18 20 -18 20 11 20 c 16 1 43 7 59 15 l 30 15 l -30 -5 c -31 -4 -130 -8 -152 -6 c -7 0 -13 10 -13 21 c 0 15 7 20 28 20 c 21 0 24 2 12 10 c -8 5 -27 10 -41 10 c -30 0 -79 35 -79 56 c 0 8 -7 17 -15 20 c -8 4 -15 17 -15 31 c 0 15 4 22 11 17 c 8 -4 9 3 5 23 c -5 21 -2 36 11 52 c 17 21 19 21 43 4 c 29 -21 121 -53 132 -47 c 4 3 25 -7 47 -20 c 23 -15 41 -21 43 -15 c 2 7 17 6 42 -5 c 21 -9 42 -14 46 -11 c 5 3 25 -4 44 -16 c 29 -17 35 -18 30 -5 c -9 23 17 20 61 -6 c 29 -16 39 -18 45 -8 c 5 8 13 9 21 4 c 16 -11 39 -12 219 -17 c 74 -2 145 -7 156 -11 c 15 -4 23 -2 28 9 c 4 11 13 14 31 9 c 15 -4 25 -2 25 5 c 0 7 19 3 49 -9 c 38 -15 50 -16 54 -6 c 3 8 24 12 61 12 c 31 -1 56 2 56 7 c 0 4 -8 7 -17 7 c -11 0 -14 3 -7 10 c 6 6 24 4 49 -5 c 54 -19 76 -19 51 0 c -30 23 -11 29 34 11 c 50 -20 56 -20 40 -1 c -11 13 -8 15 14 15 c 18 0 25 4 20 11 c -5 9 7 10 42 6 c 27 -4 43 -4 37 -1 c -28 13 -12 26 23 19 c 31 -5 36 -4 30 10 c -5 14 0 15 42 9 c 44 -7 46 -6 32 11 c -14 17 -13 18 25 11 c 38 -6 39 -6 20 10 c -19 16 -18 16 24 10 c 38 -6 42 -5 32 8 c -16 19 0 29 33 20 c 21 -5 33 1 62 30 c 20 20 45 36 56 36 c 12 0 17 4 12 12 c -5 8 0 9 15 5 c 14 -3 24 0 28 9 c 10 26 21 14 33 -33 z m -1990 -235 c 11 -12 20 -28 20 -35 c 0 -8 9 -23 20 -35 c 22 -24 27 -68 8 -69 c -7 0 -1 -5 14 -10 c 28 -11 29 -33 1 -55 c -27 -22 18 -87 48 -68 c 5 3 10 15 10 27 c 1 16 3 17 6 5 c 9 -34 33 -29 50 11 c 14 32 20 37 40 32 c 32 -9 33 -25 1 -29 l -27 -3 l 21 -35 c 21 -36 38 -44 38 -18 c 0 12 6 15 26 10 c 27 -7 58 9 48 25 c -3 5 -15 9 -27 9 c -15 0 -18 3 -10 11 c 17 17 50 1 58 -29 c 8 -33 25 -45 42 -30 c 18 14 41 -6 51 -46 l 9 -31 l 7 43 c 9 47 17 50 62 23 c 29 -18 33 -18 47 -3 c 14 13 23 14 74 3 c 88 -20 87 -19 74 -35 c -12 -14 -5 -46 10 -46 c 5 0 9 10 9 21 c 0 20 4 21 45 15 c 38 -6 44 -5 39 8 c -7 18 21 23 31 6 c 3 -6 17 -7 31 -4 c 38 10 30 -7 -28 -64 c -22 -20 -23 -52 -3 -52 c 9 0 18 -7 21 -15 c 4 -8 10 -15 15 -15 c 13 0 11 44 -3 59 c -11 10 -8 16 15 33 c 15 11 27 26 27 34 c 0 10 13 14 49 14 c 41 0 50 -3 54 -21 c 6 -24 34 -20 29 4 c -3 16 26 20 253 33 c 61 3 127 10 147 16 c 32 10 41 8 58 -7 c 14 -13 17 -22 10 -35 c -15 -29 10 -42 38 -20 c 25 21 29 50 7 50 c -8 0 -15 4 -15 10 c 0 11 25 25 63 34 c 25 6 27 4 27 -24 c 0 -20 5 -30 15 -30 c 8 0 16 6 16 13 c 1 6 2 19 3 27 c 0 8 12 17 25 18 c 16 3 21 0 16 -8 c -5 -7 4 -22 21 -36 c 25 -20 27 -25 14 -34 c -11 -8 -8 -9 13 -4 c 48 11 29 -12 -35 -43 c -143 -69 -150 -71 -213 -66 c -53 4 -65 2 -99 -22 c -39 -27 -40 -27 -230 -27 c -414 0 -473 2 -502 12 c -16 7 -58 13 -94 14 c -36 2 -96 10 -135 19 c -38 9 -109 23 -157 32 c -142 25 -270 104 -309 191 c -10 23 -26 47 -34 54 c -11 9 -15 34 -15 96 c 0 87 8 103 29 58 c 6 -15 14 -24 17 -21 c 4 3 -1 19 -9 36 c -13 25 -13 41 -1 41 c 2 0 12 -10 24 -22 z m 2 -480 c 30 -29 77 -65 104 -80 c 74 -40 283 -106 388 -123 c 340 -55 412 -65 501 -71 c 170 -11 517 31 642 78 c 50 18 56 19 78 4 c 32 -21 31 -21 44 14 c 9 28 15 31 58 30 c 4 0 6 -16 4 -35 c -2 -24 2 -37 12 -41 c 9 -3 13 -13 10 -25 c -7 -24 17 -25 60 -2 l 32 18 l -32 3 c -30 3 -32 5 -38 57 c -8 64 -4 74 35 73 c 28 -1 33 -18 6 -18 c -21 0 -36 -24 -26 -40 c 8 -12 13 -13 30 -2 c 24 15 50 16 50 2 c 0 -5 7 -10 15 -10 c 18 0 29 39 23 80 c -4 30 1 34 40 33 c 20 -1 14 14 -15 36 c -40 32 -19 37 37 10 c 29 -14 49 -31 50 -41 c 0 -24 -28 -48 -56 -48 c -21 0 -25 -4 -22 -22 c 2 -17 11 -24 31 -26 c 21 -3 27 -8 23 -19 c -3 -8 -6 -20 -6 -27 c 0 -26 -65 -110 -121 -154 c -82 -68 -102 -82 -111 -82 c -5 0 -25 -11 -46 -24 c -59 -39 -208 -96 -327 -126 c -162 -41 -297 -54 -487 -47 c -145 5 -412 38 -427 53 c -3 3 1 10 9 15 c 11 8 0 9 -37 4 c -46 -5 -66 0 -170 40 c -113 45 -273 130 -273 147 c 0 4 30 -3 66 -17 c 70 -27 99 -31 89 -15 c -3 6 -17 10 -29 10 c -13 0 -35 9 -49 20 c -15 12 -32 18 -44 14 c -17 -7 -17 -6 0 12 c 16 17 18 18 46 1 c 19 -11 31 -13 33 -6 c 6 18 54 -1 68 -26 c 7 -13 25 -26 43 -29 c 35 -7 34 -7 39 18 c 6 32 -45 61 -110 61 c -45 1 -66 7 -100 28 c -24 15 -45 34 -48 42 c -3 7 -23 21 -45 29 c -45 18 -58 40 -41 67 c 18 28 14 39 -13 39 c -17 0 -29 9 -39 28 c -25 48 -32 142 -11 142 c 2 0 27 -24 57 -52 z m 558 -74 c 47 -8 167 -19 265 -25 c 99 -6 234 -14 300 -18 l 120 -8 l -180 -1 c -305 -2 -696 35 -730 70 c -12 12 100 3 225 -18 z m 1094 15 c -4 -8 7 -9 37 -5 c 42 5 41 4 -16 -15 c -54 -18 -101 -27 -369 -74 c -56 -9 -142 -15 -235 -14 l -146 2 l 90 8 c 50 4 149 13 220 20 c 169 14 349 46 284 50 c -8 0 9 9 36 19 c 57 21 110 26 99 9 z m 1264 -271 c 7 -7 12 -22 12 -35 c 0 -27 32 -43 85 -43 c 31 0 52 -20 41 -39 c -3 -4 4 -12 15 -19 c 14 -9 19 -9 19 -1 c 0 8 27 10 95 7 c 53 -3 98 -8 102 -11 c 3 -3 3 -13 -1 -22 c -5 -13 -20 -15 -113 -9 c -100 6 -112 9 -168 43 c -33 20 -76 49 -96 65 c -32 25 -35 31 -25 52 c 13 27 17 29 34 12 z" stroke-linecap="round" />
</g>
</svg>