<?xml version="1.0" encoding="UTF-8" standalone="no" ?>
<!DOCTYPE svg PUBLIC "-//W3C//DTD SVG 1.1//EN" "http://www.w3.org/Graphics/SVG/1.1/DTD/svg11.dtd">
<svg xmlns="http://www.w3.org/2000/svg" xmlns:xlink="http://www.w3.org/1999/xlink" version="1.1" width="640" height="480" viewBox="0 0 640 480" xml:space="preserve">
<desc>Created with Fabric.js 3.6.6</desc>
<defs>
</defs>
<g transform="matrix(3.01 0 0 3.01 324.47 237.36)"  >
<g style=""   >
		<g transform="matrix(0.04 0 0 -0.04 0 0)"  >
<path style="stroke: none; stroke-width: 1; stroke-dasharray: none; stroke-linecap: butt; stroke-dashoffset: 0; stroke-linejoin: miter; stroke-miterlimit: 4; fill: rgb(0,0,0); fill-rule: nonzero; opacity: 1;"  transform=" translate(-3752.5, -7106.44)" d="M 3101 8966 c -16 -19 -131 -613 -131 -676 c 0 -100 51 -229 121 -305 c 21 -23 39 -45 39 -49 c 0 -3 -190 -6 -423 -6 c -347 0 -433 -3 -482 -15 c -145 -38 -268 -140 -335 -279 c -22 -45 -40 -92 -40 -103 c 0 -12 -11 -34 -24 -50 c -101 -120 -106 -297 -17 -521 c 20 -49 21 -71 21 -337 c 0 -276 -1 -285 -22 -322 c -18 -30 -23 -53 -23 -113 c 0 -60 5 -83 23 -113 c 21 -36 22 -49 22 -225 l 0 -187 l -172 3 c -213 4 -264 -2 -316 -35 c -63 -41 -87 -92 -87 -188 c 0 -92 16 -128 78 -179 l 39 -31 l 2378 0 l 2378 0 l 39 31 c 53 42 83 105 83 175 c 0 97 -32 159 -103 200 c -41 23 -50 24 -277 27 l -235 2 l -2 176 c -1 171 0 177 25 232 c 38 80 37 185 -1 259 l -27 52 l 0 284 l 0 284 l 31 39 c 56 70 72 113 77 200 c 5 97 -11 154 -67 242 c -21 32 -46 81 -55 109 c -40 121 -142 246 -256 313 c -117 69 -123 70 -597 70 c -233 0 -423 2 -423 4 c 0 3 14 20 31 38 c 33 36 63 88 86 152 c 15 43 47 583 36 612 c -12 32 -54 25 -297 -50 c -242 -75 -302 -98 -358 -139 l -28 -21 l -17 25 c -42 62 -127 123 -373 268 c -144 85 -272 156 -284 158 c -12 3 -28 -2 -35 -11 z m 325 -261 c 188 -109 292 -192 309 -244 c 4 -13 -4 -46 -19 -85 c -30 -75 -35 -174 -11 -251 l 14 -49 l -40 -38 c -22 -21 -43 -38 -48 -38 c -4 0 -14 26 -21 58 c -34 155 -106 313 -178 393 c -57 64 -77 75 -108 58 c -37 -19 -31 -54 19 -104 c 51 -50 104 -149 140 -255 c 29 -88 52 -188 45 -195 c -2 -3 -29 -9 -58 -15 c -145 -27 -296 54 -366 196 c -44 89 -43 164 0 390 c 20 104 41 214 47 244 c 6 30 12 61 14 68 c 6 15 7 15 261 -133 z m 967 -182 c -9 -270 -19 -360 -47 -417 c -29 -60 -74 -104 -139 -138 c -56 -30 -173 -32 -235 -4 c -23 10 -42 22 -42 26 c 0 23 109 184 155 227 c 55 53 66 78 43 101 c -47 47 -157 -48 -243 -209 l -33 -63 l -21 35 c -34 55 -54 135 -46 187 c 13 93 67 177 143 224 c 34 21 417 146 453 147 c 13 1 15 -15 12 -116 z m 846 -710 c 29 -12 72 -35 95 -50 l 41 -28 l -588 -5 c -508 -4 -589 -7 -597 -20 c -16 -25 -11 -59 9 -70 c 13 -6 233 -10 645 -10 l 626 0 l 25 -50 c 14 -27 25 -52 25 -55 c 0 -3 -804 -5 -1786 -5 l -1786 0 l 7 28 c 3 15 14 40 23 55 l 17 29 l 234 -1 c 163 -1 237 2 247 10 c 21 17 18 66 -5 79 c -12 6 -97 10 -207 10 c -184 0 -186 0 -163 19 c 39 30 110 64 164 77 c 39 10 367 12 1485 11 l 1435 -2 l 54 -22 z m 355 -431 c 32 -51 56 -124 56 -171 c 0 -43 -53 -157 -82 -174 c -13 -9 -26 -3 -63 29 c -128 108 -178 109 -337 8 c -195 -125 -238 -129 -345 -32 c -128 117 -187 118 -417 11 c -163 -76 -213 -80 -311 -27 c -177 95 -185 98 -265 98 c -72 0 -81 -4 -220 -69 c -133 -63 -151 -69 -211 -70 c -61 0 -74 4 -192 65 c -110 55 -137 65 -193 68 c -83 6 -140 -16 -189 -70 c -46 -51 -59 -80 -91 -217 c -29 -124 -51 -161 -94 -161 c -38 0 -63 33 -135 182 c -90 185 -127 217 -279 239 c -96 14 -201 -1 -279 -41 l -58 -29 l -10 27 c -45 118 -48 260 -8 332 l 23 40 l 1838 0 l 1838 0 l 24 -38 z m -155 -387 c 49 -40 61 -57 66 -88 c 9 -52 -27 -124 -75 -149 c -78 -41 -160 -13 -210 72 c -22 37 -31 45 -55 45 c -45 0 -55 -40 -26 -96 c 30 -58 53 -81 105 -107 c 86 -43 174 -38 250 13 c 20 14 39 25 41 25 c 3 0 5 -59 5 -131 c 0 -121 -1 -131 -17 -124 c -10 3 -49 13 -87 22 c -120 27 -231 -3 -334 -92 c -49 -41 -102 -65 -145 -65 c -36 0 -91 31 -148 84 c -106 98 -183 101 -374 14 c -149 -68 -177 -78 -229 -78 c -41 1 -64 10 -208 87 c -137 74 -208 69 -407 -29 c -114 -56 -132 -62 -191 -62 c -60 -1 -72 3 -155 49 c -129 72 -162 84 -231 84 c -50 1 -72 -5 -120 -30 c -194 -103 -183 -99 -253 -99 c -52 0 -95 10 -201 46 c -121 41 -147 47 -250 51 c -87 4 -131 1 -179 -11 c -34 -9 -67 -16 -72 -16 c -5 0 -9 106 -9 254 l 0 254 l 30 26 c 60 50 187 69 299 45 c 67 -14 97 -49 173 -206 c 81 -167 128 -213 216 -213 c 88 0 140 66 177 225 c 34 144 55 189 97 211 c 62 33 113 23 256 -49 c 201 -101 236 -100 455 5 c 174 83 211 87 322 28 c 148 -78 173 -89 222 -96 c 67 -8 146 13 279 76 c 180 85 216 84 313 -5 c 70 -66 112 -85 183 -85 c 66 1 137 29 246 99 c 89 57 150 83 169 73 c 6 -4 39 -29 72 -57 z m -734 -628 c 11 -5 45 -33 75 -62 c 63 -59 112 -79 190 -78 c 69 1 111 18 175 72 c 87 73 119 86 215 85 c 72 0 94 -5 142 -28 c 46 -23 59 -35 72 -67 c 20 -50 20 -121 1 -159 l -16 -30 l -1828 0 l -1829 0 l -12 29 c -16 41 -15 92 4 128 c 19 38 87 68 187 84 c 97 15 170 5 309 -41 c 236 -80 321 -78 467 9 c 147 88 172 88 323 2 c 173 -100 243 -100 454 1 c 100 48 142 63 186 66 c 55 4 63 1 182 -61 c 71 -37 145 -68 171 -72 c 66 -10 137 9 268 70 c 158 74 203 83 264 52 z m 835 -532 l 0 -164 l -264 -3 l -263 -3 l -12 60 c -13 75 -51 130 -116 170 c -42 26 -58 30 -119 30 c -80 0 -124 -17 -175 -67 c -42 -42 -62 -81 -70 -140 l -6 -48 l -1282 0 c -706 0 -1288 0 -1293 0 c -7 0 -10 22 -8 58 l 3 57 l 405 3 c 367 2 406 4 418 19 c 16 22 15 38 -4 57 c -13 14 -66 16 -420 16 l -404 0 l 0 60 l 0 60 l 1805 0 l 1805 0 l 0 -165 z m -702 -25 c 39 -24 72 -75 72 -112 l 0 -28 l -150 0 c -169 0 -166 -2 -130 77 c 35 78 134 108 208 63 z m 1288 -273 c 20 -23 24 -39 24 -90 c 0 -75 -16 -102 -68 -117 c -54 -15 -4628 -14 -4671 1 c -41 14 -61 54 -61 121 c 0 58 18 94 54 108 c 12 5 1055 8 2359 7 l 2339 -2 l 24 -28 z" stroke-linecap="round" />
</g>
		<g transform="matrix(0.04 0 0 -0.04 18.46 14.74)"  >
<path style="stroke: none; stroke-width: 1; stroke-dasharray: none; stroke-linecap: butt; stroke-dashoffset: 0; stroke-linejoin: miter; stroke-miterlimit: 4; fill: rgb(0,0,0); fill-rule: nonzero; opacity: 1;"  transform=" translate(-4203.44, -6683.89)" d="M 4052 6778 c -25 -25 -12 -56 43 -106 c 89 -82 238 -122 265 -72 c 17 32 3 58 -38 70 c -20 5 -44 10 -52 10 c -22 0 -111 54 -139 84 c -26 28 -59 34 -79 14 z" stroke-linecap="round" />
</g>
		<g transform="matrix(0.04 0 0 -0.04 -13.75 17.71)"  >
<path style="stroke: none; stroke-width: 1; stroke-dasharray: none; stroke-linecap: butt; stroke-dashoffset: 0; stroke-linejoin: miter; stroke-miterlimit: 4; fill: rgb(0,0,0); fill-rule: nonzero; opacity: 1;"  transform=" translate(-3448.34, -6610.87)" d="M 3372 6753 c -49 -24 -75 -68 -80 -132 c -3 -46 0 -62 20 -90 c 53 -78 129 -100 208 -59 c 147 76 93 299 -72 298 c -24 0 -58 -8 -76 -17 z" stroke-linecap="round" />
</g>
		<g transform="matrix(0.04 0 0 -0.04 -22.74 51.08)"  >
<path style="stroke: none; stroke-width: 1; stroke-dasharray: none; stroke-linecap: butt; stroke-dashoffset: 0; stroke-linejoin: miter; stroke-miterlimit: 4; fill: rgb(0,0,0); fill-rule: nonzero; opacity: 1;"  transform=" translate(-3244.8, -5835.81)" d="M 2982 5868 c -7 -7 -12 -25 -12 -40 c 0 -20 6 -29 23 -33 c 12 -3 135 -4 272 -3 l 250 3 l 3 28 c 7 56 3 57 -272 57 c -183 0 -255 -3 -264 -12 z" stroke-linecap="round" />
</g>
</g>
</g>
</svg>