<?xml version="1.0" standalone="no"?>
<!DOCTYPE svg PUBLIC "-//W3C//DTD SVG 20010904//EN"
 "http://www.w3.org/TR/2001/REC-SVG-20010904/DTD/svg10.dtd">
<svg version="1.0" xmlns="http://www.w3.org/2000/svg"
 width="512.000000pt" height="512.000000pt" viewBox="0 0 512.000000 512.000000"
 preserveAspectRatio="xMidYMid meet">
<metadata>
Created by potrace 1.16, written by Peter Selinger 2001-2019
</metadata>
<g transform="translate(0.000000,512.000000) scale(0.100000,-0.100000)"
fill="#000000" stroke="none">
<path d="M1350 5113 c-194 -20 -443 -78 -545 -127 -40 -18 -89 -50 -110 -71
-36 -37 -85 -125 -85 -155 0 -31 -33 -61 -106 -96 -87 -41 -114 -75 -114 -142
0 -73 48 -139 118 -163 25 -8 31 -15 27 -29 -8 -25 -8 -122 0 -158 6 -28 3
-31 -28 -41 -34 -12 -86 -59 -106 -98 -18 -34 -13 -104 9 -141 14 -23 43 -44
97 -70 83 -40 83 -40 114 -125 11 -32 35 -76 52 -99 62 -81 223 -146 474 -191
68 -12 123 -25 123 -28 0 -3 -19 -12 -42 -18 -75 -23 -162 -69 -202 -108 -38
-37 -54 -67 -90 -164 -15 -43 -22 -49 -90 -82 -41 -19 -83 -46 -95 -58 -30
-33 -43 -87 -30 -132 13 -48 77 -115 117 -123 28 -6 31 -9 25 -33 -9 -34 -9
-119 0 -154 7 -25 4 -28 -33 -43 -79 -32 -130 -122 -110 -195 13 -46 52 -82
121 -113 73 -32 83 -43 110 -123 37 -112 125 -185 279 -233 62 -20 65 -18 -92
-55 -235 -54 -341 -131 -388 -280 -17 -54 -36 -73 -100 -102 -96 -42 -136 -96
-126 -168 8 -52 62 -119 112 -137 l35 -12 -6 -61 c-4 -33 -2 -79 3 -102 l10
-42 -46 -23 c-69 -35 -106 -86 -106 -151 -1 -73 25 -107 119 -151 63 -30 78
-42 92 -73 62 -144 74 -163 130 -203 132 -94 447 -166 778 -177 276 -9 701 28
825 72 164 58 286 175 342 327 16 46 25 58 47 63 102 22 160 130 116 214 -19
38 -71 81 -105 87 -26 6 -27 7 -19 56 5 28 4 72 -1 101 -6 27 -8 52 -5 55 3 3
22 13 43 22 l38 17 24 -86 c42 -155 149 -462 192 -550 32 -66 59 -103 112
-156 100 -99 179 -137 333 -160 34 -5 46 -13 68 -46 14 -22 40 -49 58 -59 42
-26 112 -26 154 0 37 22 73 86 73 128 0 28 3 30 53 36 29 4 76 17 103 30 l51
24 17 -32 c41 -77 155 -107 223 -58 35 25 63 86 63 137 0 31 5 39 50 66 65 40
144 129 181 204 67 137 72 270 23 578 -67 426 -142 669 -290 941 -111 204
-186 269 -327 287 -99 12 -99 12 -149 77 -49 63 -96 92 -151 92 -65 0 -139
-72 -152 -149 -6 -38 -7 -39 -58 -45 -29 -4 -72 -16 -96 -27 l-44 -19 -37 40
c-59 64 -142 87 -201 56 -25 -13 -28 -12 -40 11 -16 30 -56 59 -91 68 -25 6
-26 9 -24 78 0 40 -3 89 -7 110 -7 31 -5 37 9 37 28 0 88 40 112 74 16 23 22
47 22 84 0 43 -5 57 -31 87 -18 20 -51 42 -80 52 -41 15 -51 23 -60 53 -37
114 -123 225 -225 289 -63 41 -175 75 -289 90 -49 7 -106 15 -125 18 l-35 5
46 17 c135 52 232 160 307 344 6 15 19 27 27 27 29 0 93 39 115 70 23 32 28
87 14 133 -10 33 -44 68 -89 88 l-40 18 0 78 c0 43 -4 89 -8 103 -7 23 -4 27
36 43 61 25 95 64 106 119 15 82 -37 157 -122 175 -18 4 -33 15 -39 32 -42
102 -72 153 -118 204 -127 139 -245 180 -605 212 -151 13 -520 18 -615 8z
m608 -118 c95 -9 208 -22 250 -30 155 -30 287 -119 338 -229 13 -28 22 -52 20
-53 -2 -2 -51 1 -109 6 -259 25 -628 34 -1179 28 l-566 -5 15 44 c31 90 118
144 307 190 271 65 563 80 924 49z m180 -395 c266 -14 522 -38 561 -51 47 -17
57 -43 25 -68 -35 -28 -46 -29 -389 -46 -381 -19 -1061 -19 -1452 0 -327 16
-367 23 -379 69 -8 35 -2 42 63 66 48 18 91 23 248 29 290 12 1103 12 1323 1z
m453 -292 c16 -38 19 -132 4 -147 -7 -6 -113 -5 -310 5 -296 15 -1135 14
-1497 -2 l-136 -6 -9 43 c-9 42 -2 113 11 126 4 4 129 1 279 -5 440 -20 1340
-11 1628 16 10 1 22 -11 30 -30z m-281 -253 c341 -16 375 -20 408 -41 37 -25
28 -52 -27 -77 -47 -23 -51 -23 -182 -10 -342 32 -990 27 -1645 -13 l-250 -15
-57 25 c-42 18 -57 30 -57 45 0 30 36 59 84 67 181 31 1233 43 1726 19z m139
-234 c57 -6 106 -13 109 -15 10 -11 -10 -56 -47 -106 -74 -99 -177 -155 -327
-180 -251 -42 -706 -52 -921 -20 -226 33 -391 82 -477 143 -26 19 -76 110 -76
140 0 13 167 26 640 47 218 10 967 4 1099 -9z m-271 -481 c409 -29 535 -66
643 -189 36 -39 85 -128 77 -136 -2 -2 -203 -11 -449 -20 -633 -24 -1403 -14
-1436 19 -2 2 12 33 32 69 42 76 88 120 154 149 90 39 368 97 526 111 91 8
316 6 453 -3z m-1126 -447 c98 -16 183 -18 638 -18 289 0 696 6 905 14 396 15
435 13 466 -25 16 -20 3 -44 -35 -62 -103 -51 -1865 -60 -2111 -11 -94 19
-115 70 -42 106 23 12 48 20 54 18 7 -2 63 -12 125 -22z m499 -243 c263 -7
478 -7 774 2 226 7 450 12 500 13 l89 0 14 -50 c10 -34 12 -61 6 -85 l-9 -35
-80 0 c-44 1 -271 7 -505 14 -341 11 -503 11 -820 2 -217 -6 -427 -14 -466
-18 l-72 -6 -11 51 c-6 28 -9 57 -7 64 3 7 7 26 11 42 l6 29 103 -7 c57 -3
267 -11 467 -16z m2309 -296 l52 -66 34 -216 c72 -455 177 -946 312 -1452 85
-321 89 -347 69 -375 -13 -17 -18 -18 -40 -6 -13 7 -31 28 -40 46 -23 49 -148
473 -227 770 -128 483 -288 1237 -275 1299 6 33 32 66 51 66 7 0 36 -30 64
-66z m-1115 32 c269 -14 325 -26 325 -65 0 -11 -12 -28 -26 -38 -33 -21 -120
-22 -364 -4 -222 17 -582 11 -1145 -19 -513 -27 -598 -26 -655 3 -35 17 -45
28 -45 46 0 46 39 61 183 72 395 30 1216 32 1727 5z m558 -116 c29 -23 53 -90
141 -395 130 -447 243 -917 335 -1393 54 -273 59 -327 38 -356 -20 -28 -48
-16 -79 34 -59 96 -312 1076 -464 1793 -30 141 -54 265 -54 275 0 23 28 62 44
62 7 0 25 -9 39 -20z m843 -36 c50 -24 106 -95 169 -214 141 -266 206 -470
269 -842 59 -344 58 -448 -4 -575 -31 -62 -131 -168 -153 -160 -21 7 -190 690
-278 1127 -38 188 -119 648 -119 676 0 11 86 2 116 -12z m-510 -12 c6 -4 28
-95 48 -202 82 -424 221 -993 351 -1433 72 -246 72 -243 16 -271 -37 -19 -93
-27 -110 -17 -9 6 -33 105 -67 273 -69 345 -131 617 -210 923 -54 207 -172
623 -191 671 -10 28 132 77 163 56z m-943 -53 c86 -6 168 -14 182 -17 l25 -7
-25 -53 c-49 -106 -156 -185 -301 -222 -210 -54 -767 -71 -1004 -32 -254 43
-412 96 -472 159 -14 15 -35 51 -46 79 l-19 51 166 7 c91 4 297 13 456 21 512
26 805 30 1038 14z m502 -375 c101 -465 219 -944 338 -1370 l53 -191 -40 9
c-128 27 -246 128 -311 263 -76 161 -196 551 -237 770 -19 102 -22 156 -23
355 l0 235 28 55 c19 39 42 66 79 92 28 21 53 36 55 34 2 -1 28 -115 58 -252z
m-327 69 c-7 -24 -9 -124 -5 -275 2 -131 2 -238 -2 -238 -19 0 -40 30 -55 75
-34 107 -137 222 -248 279 -39 20 -67 36 -64 36 4 0 42 7 84 16 89 18 199 67
256 113 21 17 40 31 42 31 1 0 -2 -17 -8 -37z m-773 -174 c329 -26 466 -77
556 -210 66 -97 66 -96 -53 -103 -320 -18 -1735 -12 -1754 7 -3 2 4 29 16 59
37 101 113 149 310 196 122 30 280 58 370 66 67 6 406 -3 555 -15z m-1105
-428 c96 -5 532 -6 970 -2 671 6 803 5 845 -7 59 -17 75 -28 75 -52 0 -40 -60
-52 -330 -67 -466 -27 -1593 -18 -1820 14 -49 7 -104 51 -95 75 3 8 25 24 48
36 32 17 53 21 87 17 25 -3 124 -10 220 -14z m339 -252 c386 -11 955 -4 1292
18 l95 6 14 -32 c14 -35 17 -94 5 -130 l-7 -24 -137 7 c-550 26 -1255 26
-1688 0 l-111 -7 -11 39 c-14 50 -14 73 0 114 l12 33 65 -6 c35 -4 247 -12
471 -18z m1201 -264 c277 -14 315 -19 339 -49 20 -24 6 -45 -46 -68 -44 -19
-53 -20 -108 -9 -117 25 -183 31 -472 46 -368 18 -932 6 -1300 -28 -221 -21
-245 -21 -274 -7 -41 19 -44 30 -19 63 29 37 82 44 400 57 520 21 990 19 1480
-5z m-286 -190 c290 -15 321 -17 409 -37 54 -11 57 -20 26 -81 -50 -96 -172
-182 -303 -212 -246 -56 -765 -69 -1011 -26 -253 44 -393 91 -454 151 -23 24
-87 158 -78 166 6 5 442 36 602 43 290 13 501 12 809 -4z"/>
</g>
</svg>
